<svg width="23" height="23.985" xmlns="http://www.w3.org/2000/svg">
 <defs>
  <clipPath id="a">
   <rect id="svg_1" fill="none" class="low_a" height="10" width="6" y="14.985" x="2"/>
  </clipPath>
  <clipPath id="c">
   <rect id="svg_2" fill="none" class="low_a" height="10" width="6" y="14.985" x="8"/>
  </clipPath>
  <clipPath id="d">
   <rect id="svg_3" fill="none" class="low_a" height="10" width="6" y="14.985" x="15"/>
  </clipPath>
 </defs>
 <g>
  <title>Layer 1</title>
  <path fill="#078600" id="svg_4" d="m4.5,5.485a2.813,2.813 0 0 1 -2.4,-1.3a3.861,3.861 0 0 1 -0.3,-2.1a3.147,3.147 0 0 1 1.3,-1.7a2.789,2.789 0 0 1 3.8,1a2.581,2.581 0 0 1 0.3,2.1a2.982,2.982 0 0 1 -1.2,1.7a4.013,4.013 0 0 1 -1.5,0.3zm0,-4.5a2.92,2.92 0 0 0 -0.9,0.2a2.1,2.1 0 0 0 -0.8,1.1a1.907,1.907 0 0 0 0.2,1.3a1.779,1.779 0 0 0 2.4,0.6a1.548,1.548 0 0 0 0.8,-1.1a1.907,1.907 0 0 0 -0.2,-1.3a1.763,1.763 0 0 0 -1.5,-0.8z"/>
  <path fill="#078600" id="svg_5" d="m8.5,15.485a0.472,0.472 0 0 1 -0.5,-0.5l0,-5.5a1.538,1.538 0 0 0 -1.5,-1.5l-0.5,0a0.5,0.5 0 1 1 0,-1l0.5,0a2.476,2.476 0 0 1 2.5,2.5l0,5.5a0.472,0.472 0 0 1 -0.5,0.5z"/>
  <path fill="#078600" id="svg_6" d="m0.5,15.485a0.472,0.472 0 0 1 -0.5,-0.5l0,-5.5a2.476,2.476 0 0 1 2.5,-2.5l0.5,0a0.5,0.5 0 1 1 0,1l-0.5,0a1.538,1.538 0 0 0 -1.5,1.5l0,5.5a0.472,0.472 0 0 1 -0.5,0.5z"/>
  <g fill="#078600" id="svg_7" clip-path="url(#a)" class="low_b">
   <path id="svg_8" d="m6.5,23.985a0.472,0.472 0 0 1 -0.5,-0.5l0,-9.5a0.5,0.5 0 0 1 1,0l0,9.5a0.472,0.472 0 0 1 -0.5,0.5z"/>
  </g>
  <g fill="#078600" id="svg_9" clip-path="url(#a)" class="low_b">
   <path id="svg_10" d="m2.5,24.03722a0.472,0.472 0 0 1 -0.5,-0.5l0,-9.5a0.472,0.472 0 0 1 0.5,-0.5a0.472,0.472 0 0 1 0.5,0.5l0,9.5a0.472,0.472 0 0 1 -0.5,0.5z"/>
  </g>
  <path id="svg_11" isolation="isolate" fill="#e6e6e9" class="low_c" d="m11.5,5.485a2.813,2.813 0 0 1 -2.4,-1.3a2.581,2.581 0 0 1 -0.3,-2.1a2.742,2.742 0 0 1 1.3,-1.7a2.789,2.789 0 0 1 3.8,1a2.581,2.581 0 0 1 0.3,2.1a2.742,2.742 0 0 1 -1.3,1.7a3.194,3.194 0 0 1 -1.4,0.3zm0,-4.5a2.92,2.92 0 0 0 -0.9,0.2a1.548,1.548 0 0 0 -0.8,1.1a1.907,1.907 0 0 0 0.2,1.3a1.779,1.779 0 0 0 2.4,0.6a1.548,1.548 0 0 0 0.8,-1.1a1.907,1.907 0 0 0 -0.2,-1.3a1.763,1.763 0 0 0 -1.5,-0.8z"/>
  <path id="svg_12" isolation="isolate" fill="#e6e6e9" class="low_c" d="m15.5,15.985a0.472,0.472 0 0 1 -0.5,-0.5l0,-6a1.538,1.538 0 0 0 -1.5,-1.5l-0.5,0a0.5,0.5 0 1 1 0,-1l0.5,0a2.476,2.476 0 0 1 2.5,2.5l0,6a0.472,0.472 0 0 1 -0.5,0.5z"/>
  <g id="svg_13" clip-path="url(#c)" class="low_d">
   <path id="svg_14" isolation="isolate" fill="#e6e6e9" class="low_c" d="m13.5,23.985a0.472,0.472 0 0 1 -0.5,-0.5l0,-9.5a0.5,0.5 0 0 1 1,0l0,9.5a0.472,0.472 0 0 1 -0.5,0.5z"/>
  </g>
  <path id="svg_15" isolation="isolate" fill="#e6e6e9" class="low_c" d="m18.5,5.485a2.813,2.813 0 0 1 -2.4,-1.3a2.581,2.581 0 0 1 -0.3,-2.1a2.742,2.742 0 0 1 1.3,-1.7a2.789,2.789 0 0 1 3.8,1a2.581,2.581 0 0 1 0.3,2.1a2.742,2.742 0 0 1 -1.3,1.7a3.194,3.194 0 0 1 -1.4,0.3zm0,-4.5a2.92,2.92 0 0 0 -0.9,0.2a1.548,1.548 0 0 0 -0.8,1.1a1.907,1.907 0 0 0 0.2,1.3a1.779,1.779 0 0 0 2.4,0.6a1.548,1.548 0 0 0 0.8,-1.1a1.907,1.907 0 0 0 -0.2,-1.3a1.763,1.763 0 0 0 -1.5,-0.8z"/>
  <path id="svg_16" isolation="isolate" fill="#e6e6e9" class="low_c" d="m22.5,15.985a0.472,0.472 0 0 1 -0.5,-0.5l0,-6a1.538,1.538 0 0 0 -1.5,-1.5l-0.5,0a0.5,0.5 0 1 1 0,-1l0.5,0a2.476,2.476 0 0 1 2.5,2.5l0,6a0.472,0.472 0 0 1 -0.5,0.5z"/>
  <g id="svg_17" isolation="isolate" fill="#e6e6e9" class="low_c">
   <g id="svg_18" clip-path="url(#d)" class="low_e">
    <path id="svg_19" d="m20.5,23.985a0.472,0.472 0 0 1 -0.5,-0.5l0,-9.5a0.5,0.5 0 0 1 1,0l0,9.5a0.472,0.472 0 0 1 -0.5,0.5z"/>
   </g>
  </g>
 </g>
</svg>