<svg _ngcontent-fbi-c122="" width="23" height="26" viewBox="0 0 23 26" xmlns="http://www.w3.org/2000/svg">
    <path _ngcontent-fbi-c122="" fill-rule="evenodd" clip-rule="evenodd" d="M2.14302 5.06031C2.64002 5.88731 3.54802 6.40031 4.51102 6.40031C5.00502 6.40031 5.49202 6.26531 5.91802 6.01131C6.54702 5.63331 6.99002 5.03431 7.16802 4.32231C7.34602 3.61031 7.23502 2.87131 6.85602 2.24231C6.10502 0.990313 4.33802 0.539313 3.08502 1.28931C2.45602 1.66431 2.01102 2.26331 1.83302 2.97331C1.65402 3.68631 1.76402 4.42731 2.14302 5.06031ZM3.59902 2.14731C3.86902 1.98531 4.17702 1.90031 4.49002 1.90031C5.11302 1.90031 5.67702 2.22031 5.99902 2.75731C6.24002 3.15831 6.31102 3.62831 6.19802 4.08031C6.08502 4.53231 5.80302 4.91331 5.40402 5.15331C4.59502 5.63731 3.48302 5.35031 3.00002 4.54531C2.75902 4.14231 2.68902 3.67031 2.80402 3.21631C2.91702 2.76531 3.19902 2.38531 3.59902 2.14731Z"></path>
    <path _ngcontent-fbi-c122="" d="M8.5 16.4004C8.224 16.4004 8 16.1764 8 15.9004V10.4004C8 9.57339 7.327 8.90039 6.5 8.90039H6C5.724 8.90039 5.5 8.67639 5.5 8.40039C5.5 8.12439 5.724 7.90039 6 7.90039H6.5C7.878 7.90039 9 9.02239 9 10.4004V15.9004C9 16.1764 8.776 16.4004 8.5 16.4004Z"></path>
    <path _ngcontent-fbi-c122="" d="M0.5 16.4004C0.224 16.4004 0 16.1764 0 15.9004V10.4004C0 9.02239 1.122 7.90039 2.5 7.90039H3C3.276 7.90039 3.5 8.12439 3.5 8.40039C3.5 8.67639 3.276 8.90039 3 8.90039H2.5C1.673 8.90039 1 9.57339 1 10.4004V15.9004C1 16.1764 0.776 16.4004 0.5 16.4004Z"></path>
    <mask _ngcontent-fbi-c122="" id="mask0" mask-type="alpha" maskUnits="userSpaceOnUse" x="2" y="15" width="6" height="11">
        <rect _ngcontent-fbi-c122="" x="2" y="15.9004" width="6" height="10"></rect>
    </mask>
    <g _ngcontent-fbi-c122="" mask="url(#mask0)">
        <path _ngcontent-fbi-c122="" d="M6.5 24.9004C6.224 24.9004 6 24.6764 6 24.4004V14.9004C6 14.6244 6.224 14.4004 6.5 14.4004C6.776 14.4004 7 14.6244 7 14.9004V24.4004C7 24.6764 6.776 24.9004 6.5 24.9004Z"></path>
    </g>
    <mask _ngcontent-fbi-c122="" id="mask1" mask-type="alpha" maskUnits="userSpaceOnUse" x="2" y="15" width="6" height="11">
        <rect _ngcontent-fbi-c122="" x="2" y="15.9004" width="6" height="10"></rect>
    </mask>
    <g _ngcontent-fbi-c122="" mask="url(#mask1)">
        <path _ngcontent-fbi-c122="" d="M2.5 24.9004C2.224 24.9004 2 24.6764 2 24.4004V14.9004C2 14.6244 2.224 14.4004 2.5 14.4004C2.776 14.4004 3 14.6244 3 14.9004V24.4004C3 24.6764 2.776 24.9004 2.5 24.9004Z"></path>
    </g>
    <path _ngcontent-fbi-c122="" d="M13.7031 7.13281C14.5938 6.86719 15.3516 6.73438 15.9766 6.73438C16.888 6.73438 17.6302 6.96615 18.2031 7.42969C18.8229 7.92969 19.1328 8.6276 19.1328 9.52344C19.1328 10.2422 18.8984 10.9141 18.4297 11.5391C18.2109 11.7943 17.9948 12.0495 17.7812 12.3047C17.5729 12.5547 17.3594 12.8125 17.1406 13.0781C16.6771 13.7292 16.4453 14.4531 16.4453 15.25H15.4688C15.4688 15.0312 15.4844 14.7109 15.5156 14.2891C15.5938 13.7734 15.8594 13.2318 16.3125 12.6641C16.5104 12.4297 16.7057 12.1979 16.8984 11.9688C17.0911 11.7344 17.2865 11.5 17.4844 11.2656C17.8854 10.7083 18.0859 10.1589 18.0859 9.61719C18.0859 9.00781 17.8646 8.52865 17.4219 8.17969C17.026 7.86198 16.5104 7.70312 15.875 7.70312C15.2552 7.70312 14.5547 7.85417 13.7734 8.15625L13.7031 7.13281ZM15.3203 18V16.6562H16.6406V18H15.3203Z"></path>
</svg>