<svg width="23" height="23.976" xmlns="http://www.w3.org/2000/svg">
 <defs>
  <clipPath id="a">
   <rect id="svg_1" fill="none" class="high_a" height="10" width="6" y="14.976" x="2"/>
  </clipPath>
  <clipPath id="c">
   <rect id="svg_2" fill="none" class="high_a" height="10" width="6" y="14.976" x="8"/>
  </clipPath>
  <clipPath id="d">
   <rect id="svg_3" fill="none" class="high_a" height="10" width="6" y="14.976" x="15"/>
  </clipPath>
 </defs>
 <g>
  <title>Layer 1</title>
  <path fill="#ec0045" id="svg_4" d="m4.511,5.476a2.778,2.778 0 0 1 -2.368,-1.34a2.745,2.745 0 0 1 0.942,-3.771a2.83,2.83 0 0 1 3.771,0.953a2.74,2.74 0 0 1 -2.345,4.158zm-0.021,-4.5a1.745,1.745 0 0 0 -1.49,2.645a1.791,1.791 0 0 0 2.4,0.608a1.755,1.755 0 0 0 -0.91,-3.253z"/>
  <path fill="#ec0045" id="svg_5" d="m8.5,15.476a0.5,0.5 0 0 1 -0.5,-0.5l0,-5.5a1.5,1.5 0 0 0 -1.5,-1.5l-0.5,0a0.5,0.5 0 1 1 0,-1l0.5,0a2.5,2.5 0 0 1 2.5,2.5l0,5.5a0.5,0.5 0 0 1 -0.5,0.5z"/>
  <path fill="#ec0045" id="svg_6" d="m0.5,15.476a0.5,0.5 0 0 1 -0.5,-0.5l0,-5.5a2.5,2.5 0 0 1 2.5,-2.5l0.5,0a0.5,0.5 0 1 1 0,1l-0.5,0a1.5,1.5 0 0 0 -1.5,1.5l0,5.5a0.5,0.5 0 0 1 -0.5,0.5z"/>
  <g fill="#ec0045" id="svg_7" clip-path="url(#a)" class="high_b">
   <path fill="#ec0045" id="svg_8" d="m6.5,23.976a0.5,0.5 0 0 1 -0.5,-0.5l0,-9.5a0.5,0.5 0 0 1 1,0l0,9.5a0.5,0.5 0 0 1 -0.5,0.5z"/>
  </g>
  <g fill="#ec0045" id="svg_9" clip-path="url(#a)" class="high_b">
   <path fill="#ec0045" id="svg_10" d="m2.5,23.976a0.5,0.5 0 0 1 -0.5,-0.5l0,-9.5a0.5,0.5 0 0 1 1,0l0,9.5a0.5,0.5 0 0 1 -0.5,0.5z"/>
  </g>
  <path fill="#ec0045" id="svg_11" d="m11.511,5.476a2.778,2.778 0 0 1 -2.368,-1.34a2.745,2.745 0 0 1 0.942,-3.771a2.83,2.83 0 0 1 3.771,0.953a2.741,2.741 0 0 1 -2.345,4.158zm-0.021,-4.5a1.745,1.745 0 0 0 -1.49,2.645a1.792,1.792 0 0 0 2.4,0.607a1.753,1.753 0 0 0 -0.91,-3.252z"/>
  <path fill="#ec0045" id="svg_12" d="m15.5,15.976a0.5,0.5 0 0 1 -0.5,-0.5l0,-6a1.5,1.5 0 0 0 -1.5,-1.5l-0.5,0a0.5,0.5 0 1 1 0,-1l0.5,0a2.5,2.5 0 0 1 2.5,2.5l0,6a0.5,0.5 0 0 1 -0.5,0.5z"/>
  <g fill="#ec0045" id="svg_13" clip-path="url(#c)" class="high_c">
   <path fill="#ec0045" id="svg_14" d="m13.5,23.976a0.5,0.5 0 0 1 -0.5,-0.5l0,-9.5a0.5,0.5 0 0 1 1,0l0,9.5a0.5,0.5 0 0 1 -0.5,0.5z"/>
  </g>
  <path fill="#ec0045" id="svg_15" d="m18.511,5.476a2.778,2.778 0 0 1 -2.368,-1.34a2.745,2.745 0 0 1 0.942,-3.771a2.831,2.831 0 0 1 3.771,0.953a2.741,2.741 0 0 1 -2.345,4.158zm-0.021,-4.5a1.745,1.745 0 0 0 -1.49,2.645a1.792,1.792 0 0 0 2.4,0.607a1.753,1.753 0 0 0 -0.91,-3.252z"/>
  <path fill="#ec0045" id="svg_16" d="m22.5,15.976a0.5,0.5 0 0 1 -0.5,-0.5l0,-6a1.5,1.5 0 0 0 -1.5,-1.5l-0.5,0a0.5,0.5 0 1 1 0,-1l0.5,0a2.5,2.5 0 0 1 2.5,2.5l0,6a0.5,0.5 0 0 1 -0.5,0.5z"/>
  <g fill="#ec0045" id="svg_17" clip-path="url(#d)" class="high_d">
   <path fill="#ec0045" id="svg_18" d="m20.5,23.976a0.5,0.5 0 0 1 -0.5,-0.5l0,-9.5a0.5,0.5 0 0 1 1,0l0,9.5a0.5,0.5 0 0 1 -0.5,0.5z"/>
  </g>
 </g>
</svg>